<?xml version="1.0" encoding="UTF-8" standalone="no"?><!DOCTYPE svg PUBLIC "-//W3C//DTD SVG 1.1//EN" "http://www.w3.org/Graphics/SVG/1.1/DTD/svg11.dtd"><svg width="100%" height="100%" viewBox="0 0 3000 3000" version="1.1" xmlns="http://www.w3.org/2000/svg" xmlns:xlink="http://www.w3.org/1999/xlink" xml:space="preserve" xmlns:serif="http://www.serif.com/" style="fill-rule:evenodd;clip-rule:evenodd;stroke-linejoin:round;stroke-miterlimit:2;"><g><g><path d="M1306.53,1500c0,-106.85 86.62,-193.48 193.47,-193.48c106.85,0 193.47,86.63 193.47,193.48c-0,106.86 -86.62,193.48 -193.47,193.48c-106.85,-0 -193.47,-86.62 -193.47,-193.48Zm617.42,0c-0,-233.76 -190.19,-423.94 -423.95,-423.94c-233.76,0 -423.95,190.18 -423.95,423.94c0,233.77 190.19,423.95 423.95,423.95c233.76,-0 423.95,-190.18 423.95,-423.95Z" style="fill:#232323;fill-rule:nonzero;"/><path d="M874.622,2583.19l334.338,-579.09c20.74,11.98 42.25,22.7 64.5,32.11c40.53,17.141 82.48,29.51 125.46,37.03l-116.17,658.88c-146.31,-25.72 -283.945,-76.96 -408.128,-148.93Zm-332.53,-279.4l512.078,-429.69c10.85,12.9 22.3,25.38 34.33,37.41c12.02,12.03 24.5,23.47 37.4,34.32l-429.683,512.08c-55.714,-46.82 -107.299,-98.41 -154.125,-154.12Zm1583.29,-1886.98l-334.34,579.099c-20.74,-11.98 -42.25,-22.702 -64.5,-32.113c-40.53,-17.142 -82.48,-29.509 -125.46,-37.031l116.17,-658.892c146.32,25.725 283.95,76.961 408.13,148.937Zm332.53,279.404l-512.08,429.693c-10.86,-12.9 -22.3,-25.38 -34.33,-37.41c-12.02,-12.03 -24.5,-23.47 -37.4,-34.32l429.69,-512.088c55.71,46.826 107.3,98.411 154.12,154.125Zm-1279.94,1187.56l-0.99,1.18c-22.39,-18.82 -43.12,-39.55 -61.94,-61.94l1.18,-0.99c-18.84,-22.38 -35.59,-46.26 -50.16,-71.49c-10.32,-17.85 -19.53,-36.38 -27.64,-55.53c-3.3,-7.82 -6.4,-15.69 -9.29,-23.62c-10.03,-27.49 -17.57,-55.66 -22.59,-84.37l-0,-0.01c-4.99,-28.52 -7.498,-57.57 -7.498,-87.01c-0,-29.43 2.508,-58.49 7.498,-87l-0,-0.01c5.02,-28.72 12.56,-56.89 22.59,-84.37c2.89,-7.93 5.99,-15.81 9.29,-23.63c8.11,-19.15 17.32,-37.68 27.64,-55.52c14.57,-25.23 31.32,-49.11 50.16,-71.5c9.34,-11.1 19.2,-21.85 29.55,-32.2c10.36,-10.36 21.09,-20.21 32.2,-29.55c22.38,-18.83 46.26,-35.58 71.49,-50.15c17.85,-10.32 36.37,-19.54 55.54,-27.64c7.8,-3.31 15.68,-6.4 23.61,-9.3c27.49,-10.02 55.66,-17.56 84.38,-22.58c28.52,-4.99 57.58,-7.505 87.01,-7.505c29.43,0 58.49,2.515 87.01,7.505l0.3,-1.7c58.8,10.34 114.11,30.93 164.01,59.85l-0.78,1.37c25.23,14.57 49.11,31.32 71.49,50.15l0.99,-1.17c22.39,18.82 43.12,39.55 61.94,61.93l-1.18,0.99c18.84,22.39 35.59,46.27 50.16,71.5c10.31,17.85 19.53,36.37 27.64,55.52c3.3,7.82 6.4,15.7 9.29,23.63c10.03,27.48 17.57,55.65 22.59,84.37l-0,0.01c4.99,28.51 7.5,57.57 7.5,87c-0,29.44 -2.51,58.49 -7.5,87.01l-0,0.01c-5.02,28.71 -12.56,56.88 -22.59,84.37c-2.89,7.93 -5.99,15.8 -9.29,23.62c-8.11,19.15 -17.33,37.68 -27.64,55.52c-14.57,25.24 -31.32,49.11 -50.16,71.5c-9.34,11.1 -19.19,21.85 -29.55,32.21c-10.36,10.35 -21.09,20.21 -32.2,29.54c-22.38,18.84 -46.26,35.59 -71.49,50.16c-17.85,10.32 -36.37,19.54 -55.54,27.64c-7.8,3.3 -15.68,6.4 -23.61,9.3c-27.49,10.01 -55.66,17.55 -84.38,22.58c-28.52,4.99 -57.58,7.5 -87.01,7.5c-29.43,0 -58.49,-2.51 -87.01,-7.5l-0.3,1.7c-58.8,-10.34 -114.11,-30.93 -164.01,-59.86l0.78,-1.36c-25.23,-14.57 -49.11,-31.32 -71.49,-50.16Zm1623.07,-651.38c-17.45,-85.29 -43.49,-169.17 -77.4,-249.337c-33.28,-78.7 -74.48,-154.602 -122.45,-225.599c-47.5,-70.313 -102.05,-136.431 -162.14,-196.517c-60.08,-60.086 -126.2,-114.638 -196.51,-162.14c-71,-47.965 -146.901,-89.163 -225.6,-122.45c-80.16,-33.906 -164.05,-59.946 -249.34,-77.398c-87.49,-17.903 -177.52,-26.98 -267.6,-26.98c-90.08,0 -180.11,9.077 -267.6,26.98c-85.29,17.452 -169.18,43.492 -249.338,77.398c-78.699,33.287 -154.601,74.485 -225.599,122.45c-70.312,47.502 -136.43,102.054 -196.516,162.14c-60.086,60.086 -114.638,126.204 -162.14,196.517c-47.965,70.997 -89.163,146.899 -122.45,225.599c-33.906,80.167 -59.946,164.047 -77.398,249.337c-17.903,87.49 -26.98,177.52 -26.98,267.6c0,90.08 9.077,180.11 26.98,267.6c17.452,85.29 43.492,169.17 77.398,249.34c33.287,78.7 74.485,154.6 122.45,225.6c47.502,70.31 102.054,136.43 162.14,196.51c60.086,60.09 126.204,114.64 196.516,162.14c70.998,47.97 146.9,89.17 225.599,122.45c80.158,33.91 164.048,59.95 249.338,77.4c87.49,17.9 177.52,26.98 267.6,26.98c90.08,0 180.11,-9.08 267.6,-26.98c85.29,-17.45 169.18,-43.49 249.34,-77.4c78.699,-33.28 154.6,-74.48 225.6,-122.45c70.31,-47.5 136.43,-102.05 196.51,-162.14c60.09,-60.08 114.64,-126.2 162.14,-196.51c47.97,-71 89.17,-146.9 122.45,-225.6c33.91,-80.17 59.95,-164.05 77.4,-249.34c17.9,-87.49 26.98,-177.52 26.98,-267.6c0,-90.08 -9.08,-180.11 -26.98,-267.6Z" style="fill:#232323;fill-rule:nonzero;"/></g></g></svg>